<svg width="51" height="51" viewBox="0 0 51 51" fill="none" xmlns="http://www.w3.org/2000/svg">
<path d="M23.5698 25.0673L19.151 20.6485C18.8664 20.3539 18.7089 19.9592 18.7125 19.5495C18.716 19.1398 18.8803 18.7479 19.17 18.4582C19.4597 18.1685 19.8516 18.0042 20.2613 18.0006C20.671 17.9971 21.0657 18.1546 21.3604 18.4392L25.7791 22.8579L30.1979 18.4392C30.342 18.2899 30.5144 18.1709 30.7051 18.089C30.8957 18.0071 31.1007 17.964 31.3082 17.9622C31.5157 17.9604 31.7214 17.9999 31.9134 18.0785C32.1055 18.1571 32.2799 18.2731 32.4266 18.4198C32.5733 18.5665 32.6894 18.741 32.7679 18.933C32.8465 19.125 32.886 19.3308 32.8842 19.5382C32.8824 19.7457 32.8393 19.9507 32.7574 20.1414C32.6755 20.332 32.5565 20.5044 32.4073 20.6485L27.9885 25.0673L32.4073 29.486C32.5565 29.6302 32.6755 29.8026 32.7574 29.9932C32.8393 30.1839 32.8824 30.3889 32.8842 30.5964C32.886 30.8038 32.8465 31.0096 32.7679 31.2016C32.6894 31.3936 32.5733 31.5681 32.4266 31.7148C32.2799 31.8615 32.1055 31.9775 31.9134 32.0561C31.7214 32.1346 31.5157 32.1742 31.3082 32.1724C31.1007 32.1706 30.8957 32.1275 30.7051 32.0456C30.5144 31.9637 30.342 31.8447 30.1979 31.6954L25.7791 27.2767L21.3604 31.6954C21.0657 31.98 20.671 32.1375 20.2613 32.134C19.8516 32.1304 19.4597 31.9661 19.17 31.6764C18.8803 31.3867 18.716 30.9948 18.7125 30.5851C18.7089 30.1754 18.8664 29.7807 19.151 29.486L23.5698 25.0673Z" fill="#003366"/>
<path d="M25.7793 43.8174C28.2416 43.8174 30.6798 43.3324 32.9546 42.3901C35.2295 41.4478 37.2965 40.0667 39.0375 38.3256C40.7786 36.5845 42.1598 34.5176 43.102 32.2427C44.0443 29.9678 44.5293 27.5297 44.5293 25.0674C44.5293 22.6051 44.0443 20.1669 43.102 17.8921C42.1598 15.6172 40.7786 13.5502 39.0375 11.8091C37.2965 10.068 35.2295 8.68692 32.9546 7.74464C30.6798 6.80237 28.2416 6.31738 25.7793 6.31738C20.8065 6.31738 16.0374 8.29282 12.521 11.8091C9.00474 15.3254 7.0293 20.0946 7.0293 25.0674C7.0293 30.0402 9.00474 34.8093 12.521 38.3256C16.0374 41.8419 20.8065 43.8174 25.7793 43.8174ZM25.7793 46.9424C19.9777 46.9424 14.4137 44.6377 10.3113 40.5353C6.20898 36.433 3.9043 30.869 3.9043 25.0674C3.9043 19.2658 6.20898 13.7018 10.3113 9.59942C14.4137 5.49706 19.9777 3.19238 25.7793 3.19238C31.5809 3.19238 37.1449 5.49706 41.2473 9.59942C45.3496 13.7018 47.6543 19.2658 47.6543 25.0674C47.6543 30.869 45.3496 36.433 41.2473 40.5353C37.1449 44.6377 31.5809 46.9424 25.7793 46.9424Z" fill="#003366"/>
</svg>
