<svg width="46" height="46" viewBox="0 0 46 46" fill="none" xmlns="http://www.w3.org/2000/svg">
<path d="M23 8.89586C20.9116 7.0173 18.1781 5.9747 15.341 5.97461C13.8394 5.97614 12.3529 6.26816 10.9671 6.83386C9.58127 7.39957 8.32349 8.22779 7.26613 9.27086C2.75621 13.7015 2.75813 20.6315 7.26996 25.0434L21.323 38.7909C21.6488 39.3515 22.2775 39.7134 23 39.7134C23.2967 39.7105 23.5886 39.6397 23.8523 39.5065C24.1159 39.3733 24.3439 39.1815 24.518 38.9465L38.7301 25.0434C43.242 20.6296 43.242 13.7015 38.7263 9.26336C37.6695 8.2222 36.4127 7.39567 35.0282 6.83127C33.6438 6.26686 32.1589 5.97573 30.659 5.97461C27.822 5.97506 25.0886 7.01762 23 8.89586V8.89586ZM36.0161 11.9146C39.0119 14.8602 39.0138 19.4615 36.02 22.3921L23 35.129L9.98013 22.3921C6.98629 19.4615 6.98821 14.8602 9.97629 11.9221C11.433 10.5046 13.3381 9.72461 15.341 9.72461C17.344 9.72461 19.2415 10.5046 20.6866 11.9184L21.645 12.8559C21.8228 13.0301 22.034 13.1684 22.2665 13.2627C22.4991 13.3571 22.7483 13.4056 23 13.4056C23.2518 13.4056 23.501 13.3571 23.7335 13.2627C23.9661 13.1684 24.1773 13.0301 24.3551 12.8559L25.3135 11.9184C28.2115 9.08898 33.122 9.09648 36.0161 11.9146V11.9146Z" fill="white"/>
</svg>
