<svg width="50" height="46" viewBox="0 0 50 46" fill="none" xmlns="http://www.w3.org/2000/svg">
<path d="M25.0672 4.06504C22.3432 1.5603 18.7777 0.17016 15.0772 0.170044C13.1186 0.172083 11.1796 0.561443 9.37206 1.31571C7.56446 2.06999 5.92388 3.17428 4.54471 4.56504C-1.33779 10.4725 -1.33529 19.7125 4.54971 25.595L22.8797 43.925C23.3047 44.6725 24.1247 45.155 25.0672 45.155C25.4542 45.1513 25.8349 45.0568 26.1788 44.8792C26.5227 44.7017 26.8201 44.4459 27.0472 44.1325L45.5847 25.595C51.4697 19.71 51.4697 10.4725 45.5797 4.55504C44.2012 3.16684 42.562 2.06479 40.7561 1.31225C38.9503 0.559718 37.0136 0.171543 35.0572 0.170044C31.3568 0.170649 27.7915 1.56073 25.0672 4.06504ZM42.0447 8.09004C45.9522 12.0175 45.9547 18.1525 42.0497 22.06L25.0672 39.0425L8.08471 22.06C4.17971 18.1525 4.18221 12.0175 8.07971 8.10004C9.97971 6.21004 12.4647 5.17004 15.0772 5.17004C17.6897 5.17004 20.1647 6.21004 22.0497 8.09504L23.2997 9.34504C23.5317 9.57741 23.8072 9.76175 24.1105 9.88753C24.4138 10.0133 24.7389 10.078 25.0672 10.078C25.3955 10.078 25.7207 10.0133 26.0239 9.88753C26.3272 9.76175 26.6027 9.57741 26.8347 9.34504L28.0847 8.09504C31.8647 4.32254 38.2697 4.33254 42.0447 8.09004Z" fill="#003366"/>
</svg>
