<svg width="101" height="101" viewBox="0 0 101 101" fill="none" xmlns="http://www.w3.org/2000/svg">
<path d="M84.2235 28.9698C72.2235 10.4698 47.7235 4.96985 28.7235 16.4698C10.2235 27.9698 4.22351 52.9698 16.2235 71.4698L17.2235 72.9698L13.2235 87.9698L28.2235 83.9698L29.7235 84.9698C36.2235 88.4698 43.2235 90.4698 50.2235 90.4698C57.7235 90.4698 65.2235 88.4698 71.7235 84.4698C90.2235 72.4698 95.7235 47.9698 84.2235 28.9698ZM73.7235 67.4698C71.7235 70.4698 69.2235 72.4698 65.7235 72.9698C63.7235 72.9698 61.2235 73.9698 51.2235 69.9698C42.7235 65.9698 35.7235 59.4698 30.7235 51.9698C27.7235 48.4698 26.2235 43.9698 25.7235 39.4698C25.7235 35.4698 27.2235 31.9698 29.7235 29.4698C30.7235 28.4698 31.7235 27.9698 32.7235 27.9698H35.2235C36.2235 27.9698 37.2235 27.9698 37.7235 29.9698C38.7235 32.4698 41.2235 38.4698 41.2235 38.9698C41.7235 39.4698 41.7235 40.4699 41.2235 40.9699C41.7235 41.9699 41.2235 42.9698 40.7235 43.4698C40.2235 43.9699 39.7235 44.9698 39.2235 45.4698C38.2235 45.9698 37.7235 46.9698 38.2235 47.9698C40.2235 50.9698 42.7235 53.9698 45.2235 56.4698C48.2235 58.9698 51.2235 60.9698 54.7235 62.4698C55.7235 62.9698 56.7235 62.9698 57.2235 61.9698C57.7235 60.9698 60.2235 58.4698 61.2235 57.4698C62.2235 56.4698 62.7235 56.4698 63.7235 56.9698L71.7235 60.9698C72.7235 61.4699 73.7235 61.9698 74.2235 62.4698C74.7235 63.9698 74.7235 65.9698 73.7235 67.4698Z" fill="#0D1E54"/>
</svg>
